<?xml version="1.0" encoding="UTF-8"?>
<!DOCTYPE svg PUBLIC "-//W3C//DTD SVG 1.1//EN" "http://www.w3.org/Graphics/SVG/1.1/DTD/svg11.dtd">
<!-- Creator: CorelDRAW 2021.5 -->
<svg xmlns="http://www.w3.org/2000/svg" xml:space="preserve" width="11.9434mm" height="5.9926mm" version="1.1" style="shape-rendering:geometricPrecision; text-rendering:geometricPrecision; image-rendering:optimizeQuality; fill-rule:evenodd; clip-rule:evenodd"
viewBox="0 0 100.71 50.53"
 xmlns:xlink="http://www.w3.org/1999/xlink"
 xmlns:xodm="http://www.corel.com/coreldraw/odm/2003">
 <defs>
  <style type="text/css">
   <![CDATA[
    .fil1 {fill:#579BB2;fill-rule:nonzero}
    .fil0 {fill:white;fill-rule:nonzero}
   ]]>
  </style>
 </defs>
 <g id="Слой_x0020_1">
  <metadata id="CorelCorpID_0Corel-Layer"/>
  <g id="_2443997369744">
   <path class="fil0" d="M88.26 6.81l-5.65 21.1 -8.67 2.32 8.1 -30.23 1 0c3.56,0 6.14,3.37 5.22,6.81z"/>
   <path class="fil0" d="M88 7.78l-36.67 0 0.86 -3.19c0.72,-2.71 3.17,-4.58 5.97,-4.58l24.88 0c3.56,0 6.14,3.37 5.22,6.81l-0.26 0.97z"/>
   <polygon class="fil0" points="52.26,4.32 60.31,4.32 53.13,31.1 49.36,31.1 46.44,26.05 "/>
   <polygon class="fil0" points="70.68,31.1 49.36,31.1 46.44,26.05 47.16,23.33 83.84,23.33 82.61,27.91 "/>
   <polygon class="fil0" points="82.61,27.91 70.68,31.1 49.36,31.1 48.19,29.08 84.93,19.24 "/>
   <path class="fil0" d="M48.65 7.78l-37.57 0 2.08 -7.78 30.52 0c3.56,0 6.14,3.37 5.22,6.81l-0.26 0.97z"/>
   <path class="fil0" d="M42.68 0l-2.59 9.68 -2.82 6.21 3.02 1.87 6.13 -1.67 2.49 -9.29c0.92,-3.44 -1.67,-6.81 -5.22,-6.81l-1 0z"/>
   <polygon class="fil0" points="21.21,0 12.88,31.1 4.83,31.1 13.16,0 "/>
   <polygon class="fil0" points="37.27,15.89 38.61,18.22 14.14,24.77 16.46,16.1 40.06,9.78 42.59,13.28 "/>
   <polygon class="fil0" points="34.83,11.67 43.13,26.05 47.39,33.43 37.07,31.1 27.06,13.75 "/>
   <path class="fil1" d="M3.54 36.97l4.59 0 -0.63 2.28 0.02 0c0.75,-0.81 1.66,-1.47 2.74,-1.97 1.08,-0.5 2.24,-0.75 3.49,-0.75 1.23,0 2.18,0.26 2.86,0.76 0.68,0.51 1.04,1.17 1.1,1.98l0.02 0c0.77,-0.81 1.74,-1.47 2.89,-1.99 1.15,-0.51 2.41,-0.77 3.77,-0.77 1.51,0 2.65,0.42 3.41,1.27 0.76,0.85 0.91,2.14 0.45,3.88l-2.28 8.48 -4.64 0 2.04 -7.6c0.25,-0.93 0.2,-1.62 -0.14,-2.05 -0.34,-0.43 -0.97,-0.65 -1.88,-0.64 -0.8,-0.01 -1.52,0.19 -2.17,0.59 -0.65,0.4 -1.19,0.88 -1.63,1.44l-2.22 8.27 -4.64 0 2.04 -7.58c0.25,-0.94 0.2,-1.63 -0.12,-2.06 -0.33,-0.43 -0.94,-0.65 -1.84,-0.65 -0.74,0 -1.47,0.21 -2.17,0.62 -0.7,0.41 -1.27,0.9 -1.72,1.46l-2.21 8.21 -4.64 0 3.54 -13.18z"/>
   <path class="fil1" d="M31.07 43.33c0.56,-2.08 1.77,-3.74 3.63,-4.97 1.86,-1.23 4.11,-1.85 6.76,-1.85 2.57,0 4.39,0.6 5.46,1.79 1.07,1.19 1.32,2.8 0.76,4.82l-0.31 1.16 -14.17 0 0.56 -2.12 9.71 0 0.01 0.09c0.18,-0.77 0.08,-1.42 -0.32,-1.93 -0.39,-0.51 -1.28,-0.76 -2.67,-0.76 -1.24,0 -2.27,0.32 -3.11,0.95 -0.84,0.63 -1.38,1.4 -1.62,2.31l-0.25 0.93c-0.32,1.18 -0.22,2.1 0.3,2.75 0.51,0.66 1.42,0.98 2.74,0.98 1.05,0 1.96,-0.15 2.71,-0.45 0.75,-0.3 1.33,-0.67 1.75,-1.1l3.65 0.89c-0.83,1.16 -1.96,2.07 -3.38,2.73 -1.42,0.66 -3.26,0.99 -5.52,0.99 -2.74,0 -4.69,-0.61 -5.87,-1.83 -1.18,-1.22 -1.48,-2.9 -0.9,-5.03l0.09 -0.34z"/>
   <path class="fil1" d="M52.52 36.97l4.76 0 -0.66 2.43 -0.02 0c0.68,-0.76 1.52,-1.41 2.53,-1.97 1.01,-0.56 2.08,-0.84 3.19,-0.84 0.49,0 0.9,0.03 1.22,0.09 0.32,0.06 0.56,0.13 0.71,0.19l-0.88 3.27c-0.24,-0.1 -0.51,-0.19 -0.82,-0.25 -0.31,-0.06 -0.72,-0.09 -1.23,-0.09 -0.96,0 -1.95,0.27 -2.97,0.81 -1.02,0.54 -1.88,1.23 -2.6,2.07l-2 7.46 -4.78 0 3.54 -13.18z"/>
   <path class="fil1" d="M64.41 43.31c0.57,-2.12 1.77,-3.79 3.61,-5 1.84,-1.21 4.07,-1.82 6.69,-1.82 2.52,0 4.34,0.47 5.46,1.4 1.12,0.93 1.49,2.29 1.11,4.06l-0.06 0.31 -4.44 0 0.03 -0.17c0.17,-0.77 0.03,-1.38 -0.42,-1.83 -0.45,-0.44 -1.22,-0.67 -2.32,-0.67 -1.3,0 -2.37,0.32 -3.21,0.96 -0.84,0.64 -1.41,1.53 -1.71,2.67l-0.16 0.58c-0.31,1.13 -0.23,2.02 0.24,2.67 0.46,0.65 1.36,0.98 2.69,0.98 1.16,0 2.09,-0.22 2.78,-0.65 0.69,-0.43 1.15,-1.03 1.38,-1.78l0.05 -0.2 4.4 0 -0.1 0.32c-0.52,1.74 -1.6,3.07 -3.23,3.99 -1.63,0.92 -3.71,1.38 -6.22,1.38 -2.65,0 -4.57,-0.6 -5.76,-1.81 -1.18,-1.21 -1.49,-2.89 -0.91,-5.05l0.09 -0.34z"/>
   <path class="fil1" d="M87.49 31.23l4.64 0 -2.17 8.07c0.55,-0.64 1.34,-1.26 2.35,-1.85 1.02,-0.59 2.25,-0.88 3.7,-0.88 1.87,0 3.19,0.43 3.97,1.28 0.78,0.85 0.93,2.16 0.46,3.91l-2.26 8.39 -4.63 0 2.01 -7.49c0.25,-0.94 0.2,-1.64 -0.17,-2.1 -0.37,-0.46 -0.94,-0.69 -1.71,-0.69 -0.95,0 -1.81,0.23 -2.59,0.69 -0.78,0.46 -1.41,0.95 -1.87,1.48l-2.18 8.11 -4.64 0 5.09 -18.92z"/>
  </g>
 </g>
</svg>
