<?xml version="1.0" encoding="UTF-8"?>
<!DOCTYPE svg PUBLIC "-//W3C//DTD SVG 1.1//EN" "http://www.w3.org/Graphics/SVG/1.1/DTD/svg11.dtd">
<!-- Creator: CorelDRAW 2021.5 -->
<svg xmlns="http://www.w3.org/2000/svg" xml:space="preserve" width="48.536mm" height="3.688mm" version="1.1" style="shape-rendering:geometricPrecision; text-rendering:geometricPrecision; image-rendering:optimizeQuality; fill-rule:evenodd; clip-rule:evenodd"
viewBox="0 0 4853.6 368.8"
 xmlns:xlink="http://www.w3.org/1999/xlink"
 xmlns:xodm="http://www.corel.com/coreldraw/odm/2003">
 <defs>
  <style type="text/css">
   <![CDATA[
    .fil0 {fill:#579BB2;fill-rule:nonzero}
   ]]>
  </style>
 </defs>
 <g id="Слой_x0020_1">
  <metadata id="CorelCorpID_0Corel-Layer"/>
  <g id="_2444682145712">
   <path class="fil0" d="M-0 110.82l54.98 0 75.1 134.9c3.8,6.43 6.59,11.83 8.33,16.2 1.76,4.39 3.22,8.26 4.39,11.6l1.95 0c1.33,-3.63 3.19,-8.16 5.6,-13.56 2.41,-5.4 4.71,-10.01 6.9,-13.8l75.76 -135.34 54.98 0 0 195.36 -39.85 0 0 -130.32c0,-7 0.18,-12.88 0.54,-17.62 0.37,-4.75 0.76,-9.1 1.2,-13.03l-1.98 0c-1.16,3.79 -3.16,9.19 -6.01,16.19 -2.84,7.02 -4.86,11.69 -6.03,14.02l-74.67 130.76 -37.24 0 -74.67 -130.98c-1.9,-3.06 -4.09,-7.88 -6.56,-14.45 -2.5,-6.57 -4.26,-11.75 -5.27,-15.54l-1.97 0c0.3,3.79 0.61,8.17 0.99,13.13 0.35,4.96 0.55,10.74 0.55,17.3l0 130.54 -37.02 0 0 -195.36z"/>
   <path class="fil0" d="M448.73 204.99c0,-29.79 11,-54.03 32.97,-72.71 21.97,-18.69 51.35,-28.02 88.14,-28.02 37.53,0 66.28,8.71 86.29,26.16 19.99,17.43 29.84,40.99 29.57,70.63l0 16.63 -214.84 0 -0.23 -30.87 173.68 0 0.22 13.14c0,-21.9 -5.52,-38.11 -16.53,-48.61 -11.04,-10.52 -31.51,-15.78 -61.45,-15.78 -24.68,0 -43.84,6.54 -57.48,19.62 -13.65,13.05 -20.47,29.58 -20.47,49.59l0 7.44c0,19.87 7.18,36.32 21.56,49.39 14.39,13.07 36.84,19.6 67.35,19.6 17.82,0 33.46,-3.5 46.96,-10.52 13.51,-7 24.34,-15.17 32.53,-24.52l27.16 21.89c-8.04,11.11 -21.32,21.32 -39.85,30.67 -18.55,9.33 -40.82,14.02 -66.8,14.02 -42.05,0 -74.02,-9.39 -95.93,-28.14 -21.89,-18.77 -32.85,-42.97 -32.85,-72.61l0 -7z"/>
   <path class="fil0" d="M908.09 265.11c13.8,8.67 29.68,13.02 47.63,13.02 25.85,0 45.62,-6.24 59.35,-18.72 13.72,-12.48 20.58,-28.22 20.58,-47.2l0 -7.44c0,-20.01 -6.68,-36.03 -20.03,-48.08 -13.37,-12.04 -33.34,-18.07 -59.9,-18.07 -19.71,0 -36.02,4.53 -48.94,13.59 -12.93,9.05 -22.6,19.5 -29.03,31.32l0 50.59c6.43,11.96 16.53,22.3 30.34,30.99zm-71.73 -154.29l38.76 0 1.54 36.56c7.44,-11.09 18.87,-20.72 34.27,-28.89 15.41,-8.19 34.43,-12.28 57.05,-12.28 33.15,0 59.74,9.27 79.83,27.83 20.08,18.55 30.1,42.2 30.1,70.95l0 7c0,28.61 -10.28,52.2 -30.87,70.75 -20.58,18.53 -47.24,27.8 -79.93,27.8 -22.48,0 -41.03,-3.57 -55.62,-10.73 -14.62,-7.14 -25.85,-15.76 -33.74,-25.83l0 94.82 -41.39 0 0 -257.98z"/>
   <path class="fil0" d="M1422.54 306.17l-40.31 0 0 -195.36 40.31 0 0 195.36zm-150.79 -104.8c9.57,7.8 24.94,11.72 46.12,11.72 13.42,0 27.46,-0.69 42.14,-2.08 14.67,-1.38 28.87,-4.48 42.59,-9.31l0 32.19c-12.83,2.93 -26.73,5.36 -41.7,7.34 -14.97,1.98 -30.42,2.97 -46.32,2.97 -34.03,0 -58.73,-6.55 -74.13,-19.62 -15.41,-13.05 -23.12,-34.19 -23.12,-63.4l0 -50.37 40.09 0 0 48.85c0,19.99 4.78,33.91 14.33,41.71z"/>
   <path class="fil0" d="M1584.07 204.99c0,-29.79 10.99,-54.03 32.96,-72.71 21.97,-18.69 51.35,-28.02 88.14,-28.02 37.53,0 66.28,8.71 86.3,26.16 19.99,17.43 29.84,40.99 29.56,70.63l0 16.63 -214.83 0 -0.24 -30.87 173.68 0 0.22 13.14c0,-21.9 -5.52,-38.11 -16.53,-48.61 -11.04,-10.52 -31.51,-15.78 -61.45,-15.78 -24.67,0 -43.84,6.54 -57.48,19.62 -13.65,13.05 -20.47,29.58 -20.47,49.59l0 7.44c0,19.87 7.18,36.32 21.56,49.39 14.39,13.07 36.84,19.6 67.35,19.6 17.82,0 33.46,-3.5 46.97,-10.52 13.5,-7 24.34,-15.17 32.52,-24.52l27.16 21.89c-8.03,11.11 -21.32,21.32 -39.85,30.67 -18.55,9.33 -40.82,14.02 -66.8,14.02 -42.04,0 -74.02,-9.39 -95.93,-28.14 -21.89,-18.77 -32.84,-42.97 -32.84,-72.61l0 -7z"/>
   <polygon class="fil0" points="2010.74,110.82 2010.74,191.64 2146.95,191.64 2146.95,110.82 2187.25,110.82 2187.25,306.18 2146.95,306.18 2146.95,222.73 2010.74,222.73 2010.74,306.18 1970.88,306.18 1970.88,110.82 "/>
   <path class="fil0" d="M2414.7 171.04c-3.07,39.28 -6.1,65.3 -9.1,78.07 -2.99,12.78 -6.96,23.4 -11.92,31.86l-40.09 0c7.02,-10.06 12.24,-21.23 15.66,-33.49 3.45,-12.27 6.69,-38.47 9.75,-78.63l5.7 -58.04 188.99 0 0 194.49 -40.07 0 0 -163.39 -114.77 0 -4.15 29.13zm161.83 135.13l-209.79 0 0 49.93 -39 0 0 -81.04 287.77 0 0 81.04 -38.98 0 0 -49.93z"/>
   <path class="fil0" d="M2808.75 272.22c10.66,5.4 25.91,8.11 45.78,8.11 20.13,0 38.6,-5.08 55.39,-15.23 16.81,-10.14 25.19,-21.14 25.19,-32.97l0 -18.6 -62.41 0c-25.41,0 -45.08,2.67 -59.02,7.99 -13.94,5.34 -20.91,13.41 -20.91,24.2 0,12.26 5.32,21.1 15.98,26.5zm-26.06 -71.17c21.18,-10.96 49.71,-16.43 85.62,-16.43l66.8 0 0 -11.83c0,-11.96 -4.74,-21.2 -14.23,-27.7 -9.49,-6.49 -25.4,-9.75 -47.74,-9.75 -22.62,0 -39.06,2.49 -49.28,7.45 -10.22,4.96 -15.32,11.75 -15.32,20.37l0 3.94 -41.4 0 0 -3.94c0,-16.49 9.3,-30.45 27.93,-41.82 18.61,-11.4 44.71,-17.09 78.29,-17.09 32.84,0 58.33,5.76 76.43,17.3 18.11,11.53 27.15,28.68 27.15,51.46l0 80.6c0,9.49 0.85,18.43 2.53,26.82 1.68,8.4 4.05,15.82 7.12,22.23l0 3.51 -40.3 0c-2.2,-3.51 -4.31,-7.85 -6.35,-13.03 -2.06,-5.18 -3.28,-10.26 -3.74,-15.23 -5.97,8.63 -16.97,16.2 -32.94,22.78 -16,6.57 -36.11,9.85 -60.34,9.85 -26.72,0 -48.72,-5.47 -66.03,-16.43 -17.3,-10.93 -25.96,-26.5 -25.96,-46.63 0,-20.01 10.6,-35.49 31.76,-46.43z"/>
   <path class="fil0" d="M3291.99 32.41c8.1,-6.56 16.23,-17.38 24.42,-32.41l32.63 21.02c-8.9,13.89 -20.84,26.03 -35.82,36.47 -14.96,10.44 -34.34,15.67 -58.13,15.67 -23.52,0 -43.11,-5.7 -58.82,-17.09 -15.67,-11.39 -27.19,-23.22 -34.48,-35.48l32.19 -17.74c7.6,9.79 15.59,18.79 23.99,27.05 8.38,8.25 20.76,12.36 37.12,12.36 16.49,0 28.79,-3.28 36.9,-9.85zm-147.72 78.41l42.06 0 0 133.37c0,4.82 -0.16,9.96 -0.45,15.44 -0.28,5.48 -0.5,10.54 -0.66,15.23l-0.65 0c2.19,-4.83 4.53,-10.05 7,-15.66 2.49,-5.64 5.56,-10.19 9.19,-13.69l125.71 -134.69 40.96 0 0 195.34 -42.04 0 0 -133.58c0,-4.83 -0.16,-9.31 -0.44,-13.46 -0.29,-4.18 -0.73,-8.66 -1.32,-13.47l4.82 0c-3.22,4.67 -6.05,9.12 -8.54,13.35 -2.49,4.23 -5.55,8.32 -9.2,12.26l-125.71 134.9 -40.73 0 0 -195.34z"/>
   <path class="fil0" d="M3548.22 297.85c-20.88,-10.07 -31.33,-26.64 -31.33,-49.72l0 -7 39.44 0 0 7.22c0,13.88 6.52,22.78 19.6,26.72 13.06,3.95 32.74,5.9 59.02,5.9 26.12,0 44.71,-2.59 55.73,-7.76 11.01,-5.18 16.53,-12.22 16.53,-21.14 0,-10.94 -4.71,-18.43 -14.12,-22.45 -9.42,-4.01 -24.72,-6.01 -45.88,-6.01l-59.58 0 0 -32.63 61.76 0c17.97,0 30.97,-1.62 38.99,-4.82 8.03,-3.21 12.04,-10.07 12.04,-20.59 0,-7.59 -4.74,-14.06 -14.23,-19.38 -9.49,-5.34 -27.15,-7.99 -53,-7.99 -23.65,0 -41.55,2.87 -53.65,8.64 -12.12,5.78 -17.9,13.25 -17.3,22.44l0.22 6.14 -39.22 0 -0.21 -5.7c-1.45,-17.36 8,-32.37 28.37,-44.99 20.37,-12.63 48.51,-18.94 84.42,-18.94 32.41,0 57.92,4.49 76.53,13.47 18.63,8.98 27.92,22.66 27.92,41.05 0,13.88 -3.28,24.06 -9.85,30.55 -6.56,6.51 -15.62,11.49 -27.15,15.01l0 0.43c13,1.9 23.7,6.53 32.08,13.91 8.4,7.37 12.6,19.38 12.6,36.03 0,16.63 -9.58,30.26 -28.7,40.83 -19.12,10.6 -47.14,15.88 -84.08,15.88 -37.1,0 -66.07,-5.04 -86.95,-15.1z"/>
   <path class="fil0" d="M3902.62 110.82l42.04 0 0 133.36c0,4.83 -0.14,9.97 -0.44,15.44 -0.29,5.49 -0.51,10.56 -0.65,15.23l-0.65 0c2.18,-4.82 4.53,-10.04 7,-15.66 2.49,-5.62 5.56,-10.18 9.2,-13.68l125.71 -134.69 40.95 0 0 195.36 -42.04 0 0 -133.6c0,-4.83 -0.16,-9.32 -0.44,-13.47 -0.29,-4.15 -0.73,-8.64 -1.32,-13.47l4.83 0c-3.23,4.67 -6.07,9.12 -8.55,13.35 -2.49,4.25 -5.56,8.33 -9.19,12.28l-125.71 134.91 -40.74 0 0 -195.36z"/>
   <polygon class="fil0" points="4335.63,110.82 4335.63,191.64 4471.84,191.64 4471.84,110.82 4512.14,110.82 4512.14,306.18 4471.84,306.18 4471.84,222.73 4335.63,222.73 4335.63,306.18 4295.76,306.18 4295.76,110.82 "/>
   <polygon class="fil0" points="4853.6,110.82 4853.6,141.92 4721.55,141.92 4721.55,306.18 4681.68,306.18 4681.68,110.82 "/>
  </g>
 </g>
</svg>
