<?xml version="1.0" encoding="UTF-8"?>
<!DOCTYPE svg PUBLIC "-//W3C//DTD SVG 1.1//EN" "http://www.w3.org/Graphics/SVG/1.1/DTD/svg11.dtd">
<!-- Creator: CorelDRAW 2021.5 -->
<svg xmlns="http://www.w3.org/2000/svg" xml:space="preserve" width="68.9368mm" height="4.6592mm" version="1.1" style="shape-rendering:geometricPrecision; text-rendering:geometricPrecision; image-rendering:optimizeQuality; fill-rule:evenodd; clip-rule:evenodd"
viewBox="0 0 6893.68 465.92"
 xmlns:xlink="http://www.w3.org/1999/xlink"
 xmlns:xodm="http://www.corel.com/coreldraw/odm/2003">
 <defs>
  <style type="text/css">
   <![CDATA[
    .fil0 {fill:white;fill-rule:nonzero}
   ]]>
  </style>
 </defs>
 <g id="Слой_x0020_1">
  <metadata id="CorelCorpID_0Corel-Layer"/>
  <path class="fil0" d="M655.02 296.57l221.96 0 1.36 -5.12 0 0 7.97 -29.72 12.64 -47.19 -221.96 0 13.75 -51.27 317.5 0 24.72 -92.27 -317.5 0 0.01 0 -95.55 0 -39.83 148.67 -0.05 0.19 -34.3 127.99 -0.01 0 -3.09 11.57c-10.92,40.71 19.77,80.7 61.92,80.7l0.02 0 11.98 0 317.49 0 24.72 -92.27 -317.49 0 13.74 -51.28zm2413.07 -225.57l-30.67 0 -64.86 0 -0.1 0.36c-21.34,0.92 -41.63,9.53 -56.8,24.67l-156.66 156.66 -104.9 -181.69 -47.78 0 -47.78 0 -2.01 7.56 -1.47 5.47 -95.41 356.09 95.54 0 65.13 -243.08 84.13 145.73 31.66 0 63.32 0 4.8 -4.79 2.53 -2.55 173.17 -173.17 -54.1 83.12 -52.19 194.74 95.54 0 98.91 -369.12zm-735.75 208.92l-80.51 0 -95.15 0 -8.05 0 -76.55 20.51 6.07 -22.64 114.52 -114.52 170.93 0 -31.26 116.65zm55.98 -208.92l-103.36 0 -0.02 0 -95.08 0c-5.67,0 -11.29,0.55 -16.77,1.66 -5.47,1.09 -10.82,2.71 -15.96,4.85 -10.26,4.25 -19.71,10.52 -27.72,18.52l-3.5 3.51 0.14 -0.48 -130.18 130.51 -0.46 0.46 -23.89 89.12 -2.37 8.87 -16.17 60.37 -13.84 51.73 95.52 0 12.7 -47.42 36.76 0 76.28 -20.51 147.22 0 -18.21 67.93 95.55 0 98.9 -369.12 -95.54 0zm1044.52 208.92l-80.03 0 -95.16 0 -8.05 0 -76.52 20.51 6.05 -22.64 114.51 -114.52 170.44 0 -31.24 116.65zm-46.9 -208.92l0 0 -95.11 0c-5.67,0 -11.26,0.55 -16.75,1.66 -5.47,1.09 -10.83,2.71 -15.96,4.85 -10.28,4.25 -19.71,10.52 -27.74,18.52l-3.48 3.51 0.12 -0.48 -130.18 130.51 -0.45 0.46 -23.87 89.12 -2.38 8.87 -16.17 60.37 -13.86 51.73 95.53 0 12.69 -47.42 36.77 0 76.29 -20.51 146.71 0 -18.19 67.93 95.53 0 77.1 -287.75 21.81 -81.37 -95.55 0 -102.86 0zm2372.5 208.92l-80.5 0 -103.21 0 -76.53 20.51 6.06 -22.62 114.51 -114.52 170.94 0 -31.27 116.63zm55.99 -208.92l0 0 -103.37 0 0 0 -95.1 0c-17,0 -33.48,5.08 -47.42,14.38 -4.65,3.08 -9.01,6.66 -13.03,10.65l-3.5 3.51 0.14 -0.48 -130.18 130.51 -0.46 0.46 -23.88 89.15 -2.36 8.84 -3 11.21 -27.04 100.89 95.54 0 12.69 -47.4 36.77 0 76.27 -20.53 147.22 0.02 -18.19 67.93 95.53 0 98.89 -369.14 -95.52 0zm-1007.6 0l-37.59 140.3 -74 0 -87.13 0c-22.67,0 -44.42,9.02 -60.45,25.06l-25.49 25.49 -29.41 29.41 -14.1 14.09 54.13 -83.11 40.51 -151.24 -95.53 0 -86.12 321.36 0 0 -12.79 47.76 0 0 95.53 0 0 0 136.55 -136.53 133.55 0 -36.58 136.55 95.54 0 98.91 -369.14 -95.53 0zm1447.85 -71l-102.93 27.57 -11.63 43.43 95.53 0 19.03 -71zm44.67 71l-276.85 276.85 -20.25 0 74.17 -276.85 -95.53 0 -82.82 309.1 34.65 60.02 44.81 0 20.25 0 0 0.02 27.55 -0.02c22.65,0 44.39,-9 60.42,-25.04l0.03 0 67.23 -67.23 0 0 125.65 -125.65 16.42 -16.43 -54.13 83.13 -40.52 151.22 95.55 0 106.3 -396.71 -102.93 27.59zm-923.38 0l-29.72 0 -21 0 -23.81 0 -41.49 0 -95.1 0c-22.65,0 -44.41,9.02 -60.43,25.03l-67.26 67.26 0 0 -5.98 5.99 -114.3 114.3c-10.62,10.6 -18.24,23.83 -22.13,38.33l-31.68 118.21 78.01 0 17.52 0 24.82 -92.57 184.26 -184.26 109.04 0 -74.18 276.83 95.54 0 98.89 -369.12 -21 0zm-3430.07 0l-29.53 0 -21.22 0 -23.59 0 -41.7 0 -95.08 0c-22.69,0 -44.42,9 -60.46,25.03l-187.54 187.53c-10.6,10.62 -18.23,23.83 -22.11,38.32l-11.79 43.96 43.17 74.28 32.48 0 24.79 -92.58 184.27 -184.27 109.26 0 -74.18 276.85 95.53 0 98.92 -369.12 -21.22 0zm-605.28 197.81l197.81 -197.81 -132.87 0 -114.37 112.2 -14.38 14.1 -132 35.38 43.31 -161.68 -95.54 0 -50.7 189.26 -8.46 31.57 -39.73 148.29 95.53 0 28.02 -104.61 134.46 -36.15 81.27 140.76 121.46 25.8 -14.91 -25.8 -98.9 -171.31zm5457.53 -197.81l-37.61 140.3 -65.52 0 -95.09 0c-22.68,0 -44.42,9.02 -60.45,25.06l-25.5 25.49 -29.42 29.41 -14.08 14.09 54.1 -83.11 40.54 -151.24 -95.55 0 -86.1 321.36 0 0 -12.79 47.76 0 0 95.53 0 0 0 136.52 -136.53 133.09 0 -36.58 136.55 95.53 0 61.14 -228.2 0.18 -0.64 37.59 -140.3 -95.53 0zm-6386.54 140.3l-274.47 73.55 32.59 -121.58 254.76 0 -12.88 48.03zm49.58 -140.3l-11.98 0 -254.77 0 -95.53 0 -98.91 369.12 95.53 0 14.04 -52.34 274.53 -73.79 -0.01 0 102.96 -27.66 27.49 -102.62 0 0 7 -26.13 1.59 -5.88c1.36,-5.08 2.07,-10.16 2.19,-15.17 0.87,-34.92 -27.23,-65.53 -64.13,-65.53zm3777.48 256.99l-74.04 19.86 -175.42 0 49.45 -184.58 244.15 0 -44.14 164.72zm142.78 -176.29c1.36,-5.08 2.07,-10.16 2.19,-15.17 0.02,-0.41 -0.12,-0.8 -0.12,-1.22 0.08,-12.77 -3.89,-24.76 -10.58,-34.98 -11.29,-17.33 -30.51,-29.33 -53.43,-29.33l-295.44 0c-4.13,0 -8.23,0.34 -12.22,1.03 -27.88,4.69 -51.06,25.25 -58.57,53.29l-68.25 254.78 34.65 60.02 44.81 0 201.03 0c7.48,0 14.91,-0.99 22.13,-2.91l126.36 -33.87 27.59 -102.91 0 0 39.85 -148.73z"/>
 </g>
</svg>
